<?xml version="1.0" standalone="no"?>
<!DOCTYPE svg PUBLIC "-//W3C//DTD SVG 20010904//EN"
 "http://www.w3.org/TR/2001/REC-SVG-20010904/DTD/svg10.dtd">
<svg version="1.0" xmlns="http://www.w3.org/2000/svg"
 width="512.000000pt" height="512.000000pt" viewBox="0 0 512.000000 512.000000"
 preserveAspectRatio="xMidYMid meet">

<g transform="translate(0.000000,512.000000) scale(0.100000,-0.100000)"
fill="#669885" stroke="none">
<path d="M1840 4065 l-715 -715 153 -152 152 -153 460 460 460 460 0 -1128 0
-1127 210 0 210 0 0 1127 0 1128 458 -458 457 -457 153 153 152 152 -713 713
c-391 391 -714 712 -717 712 -3 0 -327 -322 -720 -715z"/>
<path d="M430 1653 c0 -521 2 -541 59 -688 101 -263 356 -472 636 -524 40 -8
490 -11 1439 -11 1137 0 1393 3 1446 14 156 33 312 117 428 229 114 111 212
295 241 452 7 37 11 235 11 532 l0 473 -210 0 -210 0 0 -427 c0 -236 -4 -454
-10 -487 -30 -183 -173 -326 -356 -356 -79 -13 -2609 -13 -2688 0 -180 29
-322 168 -356 349 -6 31 -10 234 -10 487 l0 434 -210 0 -210 0 0 -477z"/>
</g>
</svg>
