<?xml version="1.0" encoding="UTF-8" standalone="no"?>
<svg xmlns="http://www.w3.org/2000/svg"
     preserveAspectRatio="xMidYMid meet"
     viewBox="0 0 426 435"
     height="435pt"
     width="426pt"
     version="1.0">
    <g style="fill:#669885; stroke:none"
       transform="matrix(0.1,0,0,-0.1,-43,478)">
        <path d="m 1840,4065 -715,-715 153,-152 152,-153 460,460 460,460 V 2837 1710 h 210 210 v 1127 1128 l 458,-458 457,-457 153,153 152,152 -713,713 c -391,391 -714,712 -717,712 -3,0 -327,-322 -720,-715 z"/>
        <path d="m 430,1653 c 0,-521 2,-541 59,-688 101,-263 356,-472 636,-524 40,-8 490,-11 1439,-11 1137,0 1393,3 1446,14 156,33 312,117 428,229 114,111 212,295 241,452 7,37 11,235 11,532 v 473 h -210 -210 v -427 c 0,-236 -4,-454 -10,-487 -30,-183 -173,-326 -356,-356 -79,-13 -2609,-13 -2688,0 -180,29 -322,168 -356,349 -6,31 -10,234 -10,487 v 434 H 640 430 Z"/>
    </g>
</svg>
